<svg width="23" height="23" viewBox="0 0 23 23" fill="none" xmlns="http://www.w3.org/2000/svg">
<path d="M2.66667 22.9999C1.93333 22.9999 1.30556 22.7388 0.783333 22.2166C0.261111 21.6944 0 21.0666 0 20.3333C0 19.5999 0.261111 18.9721 0.783333 18.4499C1.30556 17.9277 1.93333 17.6666 2.66667 17.6666C3.4 17.6666 4.02778 17.9277 4.55 18.4499C5.07222 18.9721 5.33333 19.5999 5.33333 20.3333C5.33333 21.0666 5.07222 21.6944 4.55 22.2166C4.02778 22.7388 3.4 22.9999 2.66667 22.9999ZM18.6667 22.9999C18.6667 20.3999 18.1778 17.9721 17.2 15.7166C16.2222 13.461 14.8889 11.4888 13.2 9.79992C11.5111 8.11103 9.53889 6.7777 7.28333 5.79992C5.02778 4.82214 2.6 4.33325 0 4.33325V0.333252C3.15556 0.333252 6.1 0.922141 8.83333 2.09992C11.5667 3.2777 13.9667 4.89992 16.0333 6.96658C18.1 9.03325 19.7222 11.4333 20.9 14.1666C22.0778 16.8999 22.6667 19.8444 22.6667 22.9999H18.6667ZM10.6667 22.9999C10.6667 21.511 10.3889 20.1277 9.83333 18.8499C9.27778 17.5721 8.51111 16.4444 7.53333 15.4666C6.55556 14.4888 5.42778 13.7221 4.15 13.1666C2.87222 12.611 1.48889 12.3333 0 12.3333V8.33325C2.04444 8.33325 3.95 8.71658 5.71667 9.48325C7.48333 10.2499 9.03333 11.2999 10.3667 12.6333C11.7 13.9666 12.75 15.5166 13.5167 17.2833C14.2833 19.0499 14.6667 20.9555 14.6667 22.9999H10.6667Z" fill="url(#paint0_linear_469_1162)"/>
<defs>
<linearGradient id="paint0_linear_469_1162" x1="11.3333" y1="0.333252" x2="11.3333" y2="22.9999" gradientUnits="userSpaceOnUse">
<stop stop-color="#8A998A" stop-opacity="0.9"/>
<stop offset="1" stop-color="white"/>
</linearGradient>
</defs>
</svg>
