<svg width="27" height="25" viewBox="0 0 27 25" fill="none" xmlns="http://www.w3.org/2000/svg">
<path d="M11.4462 21.8333C9.49952 24.5933 5.69952 25.2867 2.95285 23.3667C0.21952 21.4467 -0.420481 17.62 1.49952 14.8333C2.65952 13.1667 4.44619 12.2733 6.27285 12.1933L6.33952 14.1C5.12619 14.1933 3.95285 14.82 3.19285 15.9133C1.85952 17.8333 2.27285 20.42 4.09952 21.7133C5.93952 22.9933 8.51285 22.5 9.84619 20.5933C10.2595 19.9933 10.4995 19.34 10.5929 18.6733V17.3267L18.0329 17.2733L18.1262 17.1267C18.8329 15.9 20.3662 15.4733 21.5662 16.1667C22.7662 16.86 23.1795 18.4067 22.4729 19.6333C21.7662 20.8467 20.2195 21.2733 19.0195 20.58C18.4729 20.2733 18.0862 19.78 17.9129 19.22L12.4862 19.2467C12.3395 20.14 11.9929 21.0067 11.4462 21.8333ZM21.1529 12.3133C24.5262 12.7267 26.9262 15.7533 26.5129 19.0733C26.0995 22.4067 23.0329 24.7667 19.6595 24.3533C17.6729 24.1133 16.0329 22.98 15.0862 21.4067L16.7395 20.4467C17.3929 21.4733 18.4995 22.2067 19.8329 22.38C22.1662 22.66 24.2329 21.0733 24.5129 18.8467C24.7929 16.62 23.1395 14.58 20.8329 14.3C20.1129 14.22 19.4195 14.3133 18.7929 14.54L17.6595 15.1267L14.2195 8.76667H13.9262C12.5129 8.71334 11.4195 7.55334 11.4595 6.16667C11.4995 4.78001 12.6995 3.70001 14.0995 3.75334C15.4995 3.83334 16.6062 4.96667 16.5662 6.35334C16.5395 6.94001 16.3129 7.47334 15.9529 7.88667L18.4862 12.5667C19.3129 12.3 20.2195 12.2067 21.1529 12.3133ZM8.49952 8.68667C7.16619 5.55334 8.57952 1.96667 11.6595 0.660006C14.7529 -0.64666 18.3262 0.83334 19.6595 3.96667C20.4462 5.79334 20.2862 7.79334 19.3929 9.39334L17.7395 8.43334C18.2995 7.35334 18.3929 6.03334 17.8595 4.79334C16.9529 2.66001 14.5395 1.63334 12.4729 2.50001C10.3929 3.38001 9.45952 5.83334 10.3662 7.96667C10.7395 8.84667 11.3662 9.52667 12.1262 9.98001L12.6462 10.26L8.55285 16.9133C8.59285 16.98 8.64619 17.06 8.68619 17.1667C9.33952 18.38 8.88619 19.9133 7.65952 20.5667C6.44619 21.22 4.91285 20.74 4.24619 19.4867C3.59285 18.2467 4.04619 16.7133 5.27285 16.06C5.79285 15.78 6.36619 15.7133 6.91285 15.8333L9.99285 10.8067C9.36619 10.2333 8.83285 9.51334 8.49952 8.68667Z" fill="url(#paint0_linear_94_6970)"/>
<defs>
<linearGradient id="paint0_linear_94_6970" x1="13.4764" y1="0.184723" x2="13.4764" y2="24.4534" gradientUnits="userSpaceOnUse">
<stop stop-color="#8A998A" stop-opacity="0.9"/>
<stop offset="1" stop-color="white"/>
</linearGradient>
</defs>
</svg>
