<svg width="27" height="21" viewBox="0 0 27 21" fill="none" xmlns="http://www.w3.org/2000/svg">
<path d="M18.8337 18.1667V20.8333H0.166992V18.1667C0.166992 18.1667 0.166992 12.8333 9.50033 12.8333C18.8337 12.8333 18.8337 18.1667 18.8337 18.1667ZM14.167 5.49999C14.167 4.57701 13.8933 3.67476 13.3805 2.90733C12.8677 2.1399 12.1389 1.54176 11.2862 1.18855C10.4335 0.835342 9.49515 0.742927 8.5899 0.922991C7.68466 1.10306 6.85314 1.54751 6.20049 2.20016C5.54785 2.8528 5.10339 3.68432 4.92333 4.58957C4.74326 5.49481 4.83568 6.43312 5.18889 7.28584C5.5421 8.13857 6.14024 8.8674 6.90766 9.38018C7.67509 9.89296 8.57735 10.1667 9.50033 10.1667C10.738 10.1667 11.925 9.67499 12.8002 8.79982C13.6753 7.92465 14.167 6.73767 14.167 5.49999V5.49999ZM18.7537 12.8333C19.5733 13.4677 20.244 14.2739 20.7186 15.1953C21.1931 16.1168 21.4599 17.131 21.5003 18.1667V20.8333H26.8337V18.1667C26.8337 18.1667 26.8337 13.3267 18.7537 12.8333ZM17.5003 0.833322C16.5826 0.828212 15.685 1.1026 14.927 1.61999C15.7369 2.75164 16.1724 4.10837 16.1724 5.49999C16.1724 6.89161 15.7369 8.24834 14.927 9.37999C15.685 9.89738 16.5826 10.1718 17.5003 10.1667C18.738 10.1667 19.925 9.67499 20.8002 8.79982C21.6753 7.92465 22.167 6.73767 22.167 5.49999C22.167 4.26231 21.6753 3.07533 20.8002 2.20016C19.925 1.32499 18.738 0.833322 17.5003 0.833322V0.833322Z" fill="url(#paint0_linear_94_6747)"/>
<defs>
<linearGradient id="paint0_linear_94_6747" x1="13.5003" y1="0.833252" x2="13.5003" y2="20.8333" gradientUnits="userSpaceOnUse">
<stop stop-color="#8A998A" stop-opacity="0.9"/>
<stop offset="1" stop-color="white"/>
</linearGradient>
</defs>
</svg>
