<svg width="10" height="23" viewBox="0 0 10 23" fill="none" xmlns="http://www.w3.org/2000/svg">
<path d="M7.49952 0.833344C6.96908 0.833344 6.46038 1.04406 6.0853 1.41913C5.71023 1.7942 5.49952 2.30291 5.49952 2.83334C5.49952 3.36378 5.71023 3.87248 6.0853 4.24756C6.46038 4.62263 6.96908 4.83334 7.49952 4.83334C8.02995 4.83334 8.53866 4.62263 8.91373 4.24756C9.2888 3.87248 9.49952 3.36378 9.49952 2.83334C9.49952 2.30291 9.2888 1.7942 8.91373 1.41913C8.53866 1.04406 8.02995 0.833344 7.49952 0.833344ZM7.01952 7.19334C5.43285 7.32668 1.09952 10.78 1.09952 10.78C0.832851 10.98 0.912851 10.9667 1.12618 11.34C1.33952 11.7 1.31285 11.7267 1.56618 11.5533C1.83285 11.38 2.27285 11.1 3.00618 10.6467C5.83285 8.83334 3.45952 13.02 2.24618 20.0733C1.76618 23.5667 4.91285 21.7667 5.72618 21.2333C6.52618 20.7133 8.67285 19.2333 8.88618 19.0867C9.17952 18.8867 8.96618 18.7267 8.73952 18.3933C8.57952 18.1667 8.41952 18.3267 8.41952 18.3267C7.55285 18.9 5.96618 20.1 5.75285 19.34C5.49952 18.58 7.12618 13.3667 8.01952 9.78001C8.16618 8.92668 8.56618 7.06001 7.01952 7.19334Z" fill="url(#paint0_linear_405_1127)"/>
<defs>
<linearGradient id="paint0_linear_405_1127" x1="5.21509" y1="0.833344" x2="5.21509" y2="22.1725" gradientUnits="userSpaceOnUse">
<stop stop-color="#C7E0D6"/>
<stop offset="0.484375" stop-color="#4AA871"/>
<stop offset="1" stop-color="#20EDB3"/>
</linearGradient>
</defs>
</svg>
