<svg width="28" height="21" viewBox="0 0 28 21" fill="none" xmlns="http://www.w3.org/2000/svg">
<path d="M19.3337 18.1667V20.8333H0.666992V18.1667C0.666992 18.1667 0.666992 12.8333 10.0003 12.8333C19.3337 12.8333 19.3337 18.1667 19.3337 18.1667ZM14.667 5.5C14.667 4.57702 14.3933 3.67477 13.8805 2.90734C13.3677 2.13991 12.6389 1.54178 11.7862 1.18857C10.9335 0.835357 9.99515 0.742942 9.0899 0.923006C8.18466 1.10307 7.35314 1.54753 6.70049 2.20017C6.04785 2.85282 5.60339 3.68434 5.42333 4.58958C5.24326 5.49483 5.33568 6.43314 5.68889 7.28586C6.0421 8.13858 6.64023 8.86742 7.40766 9.3802C8.17509 9.89298 9.07735 10.1667 10.0003 10.1667C11.238 10.1667 12.425 9.675 13.3002 8.79984C14.1753 7.92467 14.667 6.73768 14.667 5.5ZM19.2537 12.8333C20.0733 13.4677 20.744 14.2739 21.2186 15.1953C21.6931 16.1168 21.9599 17.131 22.0003 18.1667V20.8333H27.3337V18.1667C27.3337 18.1667 27.3337 13.3267 19.2537 12.8333ZM18.0003 0.833337C17.0826 0.828227 16.185 1.10261 15.427 1.62C16.2369 2.75165 16.6724 4.10839 16.6724 5.5C16.6724 6.89162 16.2369 8.24836 15.427 9.38C16.185 9.8974 17.0826 10.1718 18.0003 10.1667C19.238 10.1667 20.425 9.675 21.3002 8.79984C22.1753 7.92467 22.667 6.73768 22.667 5.5C22.667 4.26233 22.1753 3.07534 21.3002 2.20017C20.425 1.325 19.238 0.833337 18.0003 0.833337Z" fill="url(#paint0_linear_165_241)"/>
<path d="M19.3337 18.1667V20.8333H0.666992V18.1667C0.666992 18.1667 0.666992 12.8333 10.0003 12.8333C19.3337 12.8333 19.3337 18.1667 19.3337 18.1667ZM14.667 5.5C14.667 4.57702 14.3933 3.67477 13.8805 2.90734C13.3677 2.13991 12.6389 1.54178 11.7862 1.18857C10.9335 0.835357 9.99515 0.742942 9.0899 0.923006C8.18466 1.10307 7.35314 1.54753 6.70049 2.20017C6.04785 2.85282 5.60339 3.68434 5.42333 4.58958C5.24326 5.49483 5.33568 6.43314 5.68889 7.28586C6.0421 8.13858 6.64023 8.86742 7.40766 9.3802C8.17509 9.89298 9.07735 10.1667 10.0003 10.1667C11.238 10.1667 12.425 9.675 13.3002 8.79984C14.1753 7.92467 14.667 6.73768 14.667 5.5ZM19.2537 12.8333C20.0733 13.4677 20.744 14.2739 21.2186 15.1953C21.6931 16.1168 21.9599 17.131 22.0003 18.1667V20.8333H27.3337V18.1667C27.3337 18.1667 27.3337 13.3267 19.2537 12.8333ZM18.0003 0.833337C17.0826 0.828227 16.185 1.10261 15.427 1.62C16.2369 2.75165 16.6724 4.10839 16.6724 5.5C16.6724 6.89162 16.2369 8.24836 15.427 9.38C16.185 9.8974 17.0826 10.1718 18.0003 10.1667C19.238 10.1667 20.425 9.675 21.3002 8.79984C22.1753 7.92467 22.667 6.73768 22.667 5.5C22.667 4.26233 22.1753 3.07534 21.3002 2.20017C20.425 1.325 19.238 0.833337 18.0003 0.833337Z" fill="url(#paint1_linear_165_241)"/>
<defs>
<linearGradient id="paint0_linear_165_241" x1="14.0003" y1="0.833267" x2="14.0003" y2="20.8333" gradientUnits="userSpaceOnUse">
<stop stop-color="#8A998A" stop-opacity="0.9"/>
<stop offset="1" stop-color="white"/>
</linearGradient>
<linearGradient id="paint1_linear_165_241" x1="14.0003" y1="0.833267" x2="14.0003" y2="20.8333" gradientUnits="userSpaceOnUse">
<stop stop-color="#9BD6BF"/>
<stop offset="0.484375" stop-color="#4AA877"/>
<stop offset="1" stop-color="#37D16D"/>
</linearGradient>
</defs>
</svg>
