<svg width="27" height="21" viewBox="0 0 27 21" fill="none" xmlns="http://www.w3.org/2000/svg">
<path d="M18.8337 17.6667V20.3333H0.166992V17.6667C0.166992 17.6667 0.166992 12.3333 9.50033 12.3333C18.8337 12.3333 18.8337 17.6667 18.8337 17.6667ZM14.167 5C14.167 4.07702 13.8933 3.17477 13.3805 2.40734C12.8677 1.63991 12.1389 1.04178 11.2862 0.688566C10.4335 0.335357 9.49515 0.242942 8.5899 0.423006C7.68466 0.603071 6.85314 1.04753 6.20049 1.70017C5.54785 2.35282 5.10339 3.18434 4.92333 4.08958C4.74326 4.99483 4.83568 5.93314 5.18889 6.78586C5.5421 7.63858 6.14023 8.36742 6.90766 8.8802C7.67509 9.39298 8.57735 9.66667 9.50033 9.66667C10.738 9.66667 11.925 9.175 12.8002 8.29984C13.6753 7.42467 14.167 6.23768 14.167 5ZM18.7537 12.3333C19.5733 12.9677 20.244 13.7739 20.7186 14.6953C21.1931 15.6168 21.4599 16.631 21.5003 17.6667V20.3333H26.8337V17.6667C26.8337 17.6667 26.8337 12.8267 18.7537 12.3333ZM17.5003 0.333337C16.5826 0.328227 15.685 0.602612 14.927 1.12C15.7369 2.25165 16.1724 3.60839 16.1724 5C16.1724 6.39162 15.7369 7.74836 14.927 8.88C15.685 9.3974 16.5826 9.67178 17.5003 9.66667C18.738 9.66667 19.925 9.175 20.8002 8.29984C21.6753 7.42467 22.167 6.23768 22.167 5C22.167 3.76233 21.6753 2.57534 20.8002 1.70017C19.925 0.825003 18.738 0.333337 17.5003 0.333337Z" fill="url(#paint0_linear_280_57)"/>
<defs>
<linearGradient id="paint0_linear_280_57" x1="13.5003" y1="0.333267" x2="13.5003" y2="20.3333" gradientUnits="userSpaceOnUse">
<stop stop-color="#C7E0D6"/>
<stop offset="0.484375" stop-color="#4AA871"/>
<stop offset="1" stop-color="#20EDB3"/>
</linearGradient>
</defs>
</svg>
