<svg width="9" height="22" viewBox="0 0 9 22" fill="none" xmlns="http://www.w3.org/2000/svg">
<path d="M6.99952 0.333328C6.46908 0.333328 5.96038 0.544042 5.5853 0.919114C5.21023 1.29419 4.99952 1.8029 4.99952 2.33333C4.99952 2.86376 5.21023 3.37247 5.5853 3.74754C5.96038 4.12261 6.46908 4.33333 6.99952 4.33333C7.52995 4.33333 8.03866 4.12261 8.41373 3.74754C8.7888 3.37247 8.99952 2.86376 8.99952 2.33333C8.99952 1.8029 8.7888 1.29419 8.41373 0.919114C8.03866 0.544042 7.52995 0.333328 6.99952 0.333328ZM6.51952 6.69333C4.93285 6.82666 0.599517 10.28 0.599517 10.28C0.332851 10.48 0.412851 10.4667 0.626185 10.84C0.839518 11.2 0.812851 11.2267 1.06618 11.0533C1.33285 10.88 1.77285 10.6 2.50618 10.1467C5.33285 8.33333 2.95952 12.52 1.74618 19.5733C1.26618 23.0667 4.41285 21.2667 5.22618 20.7333C6.02618 20.2133 8.17285 18.7333 8.38618 18.5867C8.67952 18.3867 8.46618 18.2267 8.23952 17.8933C8.07952 17.6667 7.91952 17.8267 7.91952 17.8267C7.05285 18.4 5.46618 19.6 5.25285 18.84C4.99952 18.08 6.62618 12.8667 7.51952 9.27999C7.66618 8.42666 8.06618 6.56 6.51952 6.69333Z" fill="url(#paint0_linear_298_855)"/>
<defs>
<linearGradient id="paint0_linear_298_855" x1="4.71509" y1="0.333328" x2="4.71509" y2="21.6725" gradientUnits="userSpaceOnUse">
<stop stop-color="#C7E0D6"/>
<stop offset="0.484375" stop-color="#4AA871"/>
<stop offset="1" stop-color="#20EDB3"/>
</linearGradient>
</defs>
</svg>
