<svg width="22" height="28" viewBox="0 0 22 28" fill="none" xmlns="http://www.w3.org/2000/svg">
<path d="M18.9997 0.666748H10.9997V10.0001L7.66634 8.00008L4.33301 10.0001V0.666748H2.99967C1.53301 0.666748 0.333008 1.86675 0.333008 3.33341V24.6667C0.333008 26.1334 1.53301 27.3334 2.99967 27.3334H18.9997C20.4663 27.3334 21.6663 26.1334 21.6663 24.6667V3.33341C21.6663 1.85341 20.4663 0.666748 18.9997 0.666748ZM18.573 22.5467C18.4263 22.6667 16.9597 23.6667 16.3997 24.0001C15.8397 24.3867 13.6663 25.6267 14.013 23.2267C14.853 18.3734 16.4797 15.4934 14.533 16.7467C14.0263 17.0534 13.733 17.2401 13.5463 17.3334C13.373 17.4801 13.3863 17.4667 13.2397 17.2134C13.093 16.9601 13.0397 16.9734 13.2263 16.8401C13.2263 16.8401 16.1997 14.4534 17.293 14.3734C18.333 14.2801 18.0797 15.5601 17.9863 16.1467C17.373 18.6134 16.253 22.2001 16.4263 22.7201C16.573 23.2401 17.6663 22.4134 18.253 22.0001C18.253 22.0001 18.333 21.9067 18.4797 22.0667C18.6263 22.2934 18.773 22.4001 18.573 22.5467ZM17.6263 12.7467C16.8663 12.7467 16.253 12.1334 16.253 11.3734C16.253 10.6134 16.8663 10.0001 17.6263 10.0001C18.3863 10.0001 18.9997 10.6134 18.9997 11.3734C18.9997 12.1334 18.3863 12.7467 17.6263 12.7467Z" fill="url(#paint0_linear_175_1527)"/>
<defs>
<linearGradient id="paint0_linear_175_1527" x1="10.9997" y1="0.666748" x2="10.9997" y2="27.3334" gradientUnits="userSpaceOnUse">
<stop stop-color="#C7E0D6"/>
<stop offset="0.484375" stop-color="#4AA871"/>
<stop offset="1" stop-color="#20EDB3"/>
</linearGradient>
</defs>
</svg>
