<svg width="28" height="28" viewBox="0 0 28 28" fill="none" xmlns="http://www.w3.org/2000/svg">
<path d="M25.7107 27.1333L0.888672 2.31094L2.46634 0.733276L27.2887 25.5556L25.7107 27.1333ZM17.3553 12.4666L15.133 10.2443V0.999943H22.9997V5.77761H17.3553V12.4666ZM12.244 24.9999C10.8218 24.9999 9.61445 24.5036 8.62201 23.5109C7.62934 22.5185 7.133 21.3112 7.133 19.8889C7.133 18.4667 7.62934 17.2593 8.62201 16.2666C9.61445 15.2739 10.8218 14.7776 12.244 14.7776C12.8293 14.7776 13.3609 14.8573 13.8387 15.0166C14.3164 15.1759 14.7479 15.4001 15.133 15.6889V13.3999L17.3553 15.6223V19.8889C17.3553 21.3112 16.859 22.5185 15.8663 23.5109C14.8737 24.5036 13.6662 24.9999 12.244 24.9999Z" fill="url(#paint0_linear_220_480)"/>
<defs>
<linearGradient id="paint0_linear_220_480" x1="14.0887" y1="0.733276" x2="14.0887" y2="27.1333" gradientUnits="userSpaceOnUse">
<stop stop-color="#8A998A" stop-opacity="0.9"/>
<stop offset="1" stop-color="white"/>
</linearGradient>
</defs>
</svg>
