<svg width="16" height="24" viewBox="0 0 16 24" fill="none" xmlns="http://www.w3.org/2000/svg">
<path d="M5.17741 24C3.75518 24 2.54785 23.5037 1.55541 22.511C0.56274 21.5186 0.0664062 20.3112 0.0664062 18.889C0.0664062 17.4668 0.56274 16.2593 1.55541 15.2667C2.54785 14.274 3.75518 13.7777 5.17741 13.7777C5.76274 13.7777 6.2943 13.8573 6.77207 14.0167C7.24985 14.176 7.6813 14.4001 8.06641 14.689V0H15.9331V4.77767H10.2887V18.889C10.2887 20.3112 9.79241 21.5186 8.79974 22.511C7.80707 23.5037 6.59963 24 5.17741 24Z" fill="url(#paint0_linear_207_424)"/>
<path d="M5.17741 24C3.75518 24 2.54785 23.5037 1.55541 22.511C0.56274 21.5186 0.0664062 20.3112 0.0664062 18.889C0.0664062 17.4668 0.56274 16.2593 1.55541 15.2667C2.54785 14.274 3.75518 13.7777 5.17741 13.7777C5.76274 13.7777 6.2943 13.8573 6.77207 14.0167C7.24985 14.176 7.6813 14.4001 8.06641 14.689V0H15.9331V4.77767H10.2887V18.889C10.2887 20.3112 9.79241 21.5186 8.79974 22.511C7.80707 23.5037 6.59963 24 5.17741 24Z" fill="url(#paint1_linear_207_424)"/>
<defs>
<linearGradient id="paint0_linear_207_424" x1="7.99974" y1="0" x2="7.99974" y2="24" gradientUnits="userSpaceOnUse">
<stop stop-color="#8A998A" stop-opacity="0.9"/>
<stop offset="1" stop-color="white"/>
</linearGradient>
<linearGradient id="paint1_linear_207_424" x1="7.99974" y1="0" x2="7.99974" y2="24" gradientUnits="userSpaceOnUse">
<stop stop-color="#9BD6BF"/>
<stop offset="0.484375" stop-color="#4AA877"/>
<stop offset="1" stop-color="#37D16D"/>
</linearGradient>
</defs>
</svg>
