<svg width="27" height="24" viewBox="0 0 27 24" fill="none" xmlns="http://www.w3.org/2000/svg">
<path d="M26.2503 0V16.6667C26.2503 17.9043 25.7587 19.0913 24.8835 19.9665C24.0083 20.8417 22.8213 21.3333 21.5837 21.3333C20.346 21.3333 19.159 20.8417 18.2838 19.9665C17.4087 19.0913 16.917 17.9043 16.917 16.6667C16.917 15.429 17.4087 14.242 18.2838 13.3668C19.159 12.4917 20.346 12 21.5837 12C22.3037 12 22.9837 12.16 23.5837 12.4533V4.62667L10.2503 7.46667V19.3333C10.2503 20.571 9.75866 21.758 8.88349 22.6332C8.00832 23.5083 6.82134 24 5.58366 24C4.34598 24 3.159 23.5083 2.28383 22.6332C1.40866 21.758 0.916992 20.571 0.916992 19.3333C0.916992 18.0957 1.40866 16.9087 2.28383 16.0335C3.159 15.1583 4.34598 14.6667 5.58366 14.6667C6.30366 14.6667 6.98366 14.8267 7.58366 15.12V4L26.2503 0Z" fill="url(#paint0_linear_185_214)"/>
<defs>
<linearGradient id="paint0_linear_185_214" x1="13.5837" y1="0" x2="13.5837" y2="24" gradientUnits="userSpaceOnUse">
<stop stop-color="#8A998A" stop-opacity="0.9"/>
<stop offset="1" stop-color="white"/>
</linearGradient>
</defs>
</svg>
