<svg width="20" height="27" viewBox="0 0 20 27" fill="none" xmlns="http://www.w3.org/2000/svg">
<path d="M10.2503 13.5C9.18946 13.5 8.17204 13.9214 7.4219 14.6716C6.67175 15.4217 6.25033 16.4392 6.25033 17.5C6.25033 18.5609 6.67175 19.5783 7.4219 20.3284C8.17204 21.0786 9.18946 21.5 10.2503 21.5C11.3112 21.5 12.3286 21.0786 13.0788 20.3284C13.8289 19.5783 14.2503 18.5609 14.2503 17.5C14.2503 16.4392 13.8289 15.4217 13.0788 14.6716C12.3286 13.9214 11.3112 13.5 10.2503 13.5ZM10.2503 24.1667C8.48222 24.1667 6.78652 23.4643 5.53628 22.2141C4.28604 20.9638 3.58366 19.2681 3.58366 17.5C3.58366 15.7319 4.28604 14.0362 5.53628 12.786C6.78652 11.5357 8.48222 10.8334 10.2503 10.8334C12.0184 10.8334 13.7141 11.5357 14.9644 12.786C16.2146 14.0362 16.917 15.7319 16.917 17.5C16.917 19.2681 16.2146 20.9638 14.9644 22.2141C13.7141 23.4643 12.0184 24.1667 10.2503 24.1667V24.1667ZM10.2503 2.83335C10.9576 2.83335 11.6358 3.11431 12.1359 3.6144C12.636 4.1145 12.917 4.79278 12.917 5.50002C12.917 6.20726 12.636 6.88554 12.1359 7.38564C11.6358 7.88574 10.9576 8.16669 10.2503 8.16669C8.77033 8.16669 7.58366 6.96669 7.58366 5.50002C7.58366 4.02002 8.77033 2.83335 10.2503 2.83335ZM16.917 0.166687H3.58366C2.10366 0.166687 0.916992 1.35335 0.916992 2.83335V24.1667C0.916992 24.8739 1.19794 25.5522 1.69804 26.0523C2.19814 26.5524 2.87641 26.8334 3.58366 26.8334H16.917C17.6242 26.8334 18.3025 26.5524 18.8026 26.0523C19.3027 25.5522 19.5837 24.8739 19.5837 24.1667V2.83335C19.5837 1.35335 18.3837 0.166687 16.917 0.166687Z" fill="url(#paint0_linear_114_375)"/>
<defs>
<linearGradient id="paint0_linear_114_375" x1="10.2503" y1="0.166687" x2="10.2503" y2="26.8334" gradientUnits="userSpaceOnUse">
<stop stop-color="#8A998A" stop-opacity="0.9"/>
<stop offset="1" stop-color="white"/>
</linearGradient>
</defs>
</svg>
