<svg width="21" height="21" viewBox="0 0 21 21" fill="none" xmlns="http://www.w3.org/2000/svg">
<path d="M18.9171 0.833313L20.4638 6.63331L19.1838 6.97998C18.5838 5.81998 17.9704 4.65998 17.2638 4.07331C16.5571 3.49998 15.7304 3.49998 14.9171 3.49998H11.5838V17.5C11.5838 18.1666 11.5838 18.8333 12.0238 19.1666C12.4771 19.5 13.3571 19.5 14.2504 19.5V20.8333H6.25044V19.5C7.14378 19.5 8.02378 19.5 8.47711 19.1666C8.91711 18.8333 8.91711 18.1666 8.91711 17.5V3.49998H5.58378C4.77044 3.49998 3.94378 3.49998 3.23711 4.07331C2.53044 4.65998 1.91711 5.81998 1.31711 6.97998L0.0371094 6.63331L1.58378 0.833313H18.9171Z" fill="url(#paint0_linear_114_58)"/>
<defs>
<linearGradient id="paint0_linear_114_58" x1="10.2504" y1="0.833313" x2="10.2504" y2="20.8333" gradientUnits="userSpaceOnUse">
<stop stop-color="#8A998A" stop-opacity="0.9"/>
<stop offset="1" stop-color="white"/>
</linearGradient>
</defs>
</svg>
