<svg width="23" height="27" viewBox="0 0 23 27" fill="none" xmlns="http://www.w3.org/2000/svg">
<path d="M19.4997 0.166656H11.4997V9.49999L8.16634 7.49999L4.83301 9.49999V0.166656H3.49967C2.03301 0.166656 0.833008 1.36666 0.833008 2.83332V24.1667C0.833008 25.6333 2.03301 26.8333 3.49967 26.8333H19.4997C20.9663 26.8333 22.1663 25.6333 22.1663 24.1667V2.83332C22.1663 1.35332 20.9663 0.166656 19.4997 0.166656ZM19.073 22.0467C18.9263 22.1667 17.4597 23.1667 16.8997 23.5C16.3397 23.8867 14.1663 25.1267 14.513 22.7267C15.353 17.8733 16.9797 14.9933 15.033 16.2467C14.5263 16.5533 14.233 16.74 14.0463 16.8333C13.873 16.98 13.8863 16.9667 13.7397 16.7133C13.593 16.46 13.5397 16.4733 13.7263 16.34C13.7263 16.34 16.6997 13.9533 17.793 13.8733C18.833 13.78 18.5797 15.06 18.4863 15.6467C17.873 18.1133 16.753 21.7 16.9263 22.22C17.073 22.74 18.1663 21.9133 18.753 21.5C18.753 21.5 18.833 21.4067 18.9797 21.5667C19.1263 21.7933 19.273 21.9 19.073 22.0467ZM18.1263 12.2467C17.3663 12.2467 16.753 11.6333 16.753 10.8733C16.753 10.1133 17.3663 9.49999 18.1263 9.49999C18.8863 9.49999 19.4997 10.1133 19.4997 10.8733C19.4997 11.6333 18.8863 12.2467 18.1263 12.2467Z" fill="url(#paint0_linear_94_6753)"/>
<defs>
<linearGradient id="paint0_linear_94_6753" x1="11.4997" y1="0.166656" x2="11.4997" y2="26.8333" gradientUnits="userSpaceOnUse">
<stop stop-color="#8A998A" stop-opacity="0.9"/>
<stop offset="1" stop-color="white"/>
</linearGradient>
</defs>
</svg>
